<svg width="28" height="184" viewBox="0 0 28 184" fill="none" xmlns="http://www.w3.org/2000/svg">
<rect width="6.27586" height="6.45614" fill="#666666"/>
<rect y="17.7539" width="6.27586" height="6.45614" fill="#666666"/>
<rect y="35.5088" width="6.27586" height="6.45614" fill="#666666"/>
<rect y="53.2627" width="6.27586" height="6.45614" fill="#666666"/>
<rect y="71.0176" width="6.27586" height="6.45614" fill="#666666"/>
<rect y="88.7715" width="6.27586" height="6.45614" fill="#666666"/>
<rect y="106.526" width="6.27586" height="6.45614" fill="#666666"/>
<rect y="124.28" width="6.27586" height="6.45614" fill="#666666"/>
<rect y="142.035" width="6.27586" height="6.45614" fill="#666666"/>
<rect y="159.789" width="6.27586" height="6.45614" fill="#666666"/>
<rect y="177.544" width="6.27586" height="6.45614" fill="#666666"/>
<rect x="21.7246" width="6.27586" height="6.45614" fill="#666666"/>
<rect x="21.7246" y="17.7539" width="6.27586" height="6.45614" fill="#666666"/>
<rect x="21.7246" y="35.5088" width="6.27586" height="6.45614" fill="#666666"/>
<rect x="21.7246" y="53.2627" width="6.27586" height="6.45614" fill="#666666"/>
<rect x="21.7246" y="71.0176" width="6.27586" height="6.45614" fill="#666666"/>
<rect x="21.7246" y="88.7715" width="6.27586" height="6.45614" fill="#666666"/>
<rect x="21.7246" y="106.526" width="6.27586" height="6.45614" fill="#666666"/>
<rect x="21.7246" y="124.28" width="6.27586" height="6.45614" fill="#666666"/>
<rect x="21.7246" y="142.035" width="6.27586" height="6.45614" fill="#666666"/>
<rect x="21.7246" y="159.789" width="6.27586" height="6.45614" fill="#666666"/>
<rect x="21.7246" y="177.544" width="6.27586" height="6.45614" fill="#666666"/>
</svg>
