<svg width="75" height="74" viewBox="0 0 75 74" fill="none" xmlns="http://www.w3.org/2000/svg">
<path d="M25.167 68.8199C24.3037 68.8199 23.4094 68.6042 22.6078 68.1726C20.8503 67.2476 19.7712 65.3974 19.7712 63.4241V59.046C10.4595 58.0902 4.35449 51.2449 4.35449 41.4399V22.9401C4.35449 12.3334 11.477 5.21094 22.0837 5.21094H52.917C63.5237 5.21094 70.6462 12.3334 70.6462 22.9401V41.4399C70.6462 52.0466 63.5237 59.1691 52.917 59.1691H41.2928L28.1577 67.926C27.2636 68.5119 26.2153 68.8199 25.167 68.8199ZM22.0837 9.80507C14.1287 9.80507 8.97949 14.9542 8.97949 22.9092V41.4094C8.97949 49.3644 14.1287 54.5136 22.0837 54.5136C23.3478 54.5136 24.3962 55.5619 24.3962 56.8261V63.3936C24.3962 63.7944 24.6428 63.9794 24.797 64.0719C24.9512 64.1644 25.2595 64.2568 25.5987 64.041L39.3196 54.9144C39.6896 54.6678 40.152 54.5136 40.6145 54.5136H52.9479C60.9029 54.5136 66.052 49.3644 66.052 41.4094V22.9092C66.052 14.9542 60.9029 9.80507 52.9479 9.80507H22.0837Z" fill="#5A0000"/>
<path d="M37.4991 37.3389C36.2349 37.3389 35.1866 36.2905 35.1866 35.0264V34.379C35.1866 30.8023 37.8074 29.0448 38.7941 28.3665C39.9349 27.5956 40.3049 27.0715 40.3049 26.2698C40.3049 24.7281 39.0408 23.4639 37.4991 23.4639C35.9574 23.4639 34.6934 24.7281 34.6934 26.2698C34.6934 27.534 33.645 28.5823 32.3809 28.5823C31.1167 28.5823 30.0684 27.534 30.0684 26.2698C30.0684 22.169 33.3983 18.8389 37.4991 18.8389C41.5999 18.8389 44.9299 22.169 44.9299 26.2698C44.9299 29.7848 42.34 31.5423 41.3841 32.1898C40.1816 32.9914 39.8116 33.5157 39.8116 34.379V35.0264C39.8116 36.3214 38.7633 37.3389 37.4991 37.3389Z" fill="#5A0000"/>
<path d="M37.5 45.0166C36.205 45.0166 35.1875 43.9683 35.1875 42.7041C35.1875 41.4399 36.2358 40.3916 37.5 40.3916C38.7642 40.3916 39.8125 41.4399 39.8125 42.7041C39.8125 43.9683 38.795 45.0166 37.5 45.0166Z" fill="#5A0000"/>
</svg>
