<svg width="35" height="20" viewBox="0 0 35 20" fill="none" xmlns="http://www.w3.org/2000/svg">
<path d="M11.4453 1.46094C11.4922 1.50781 11.5312 1.57031 11.5625 1.64844C11.5938 1.71094 11.6094 1.78125 11.6094 1.85938C11.625 1.9375 11.6172 2.01562 11.5859 2.09375C11.5703 2.15625 11.5156 2.19531 11.4219 2.21094C11.4844 2.27344 11.5 2.33594 11.4688 2.39844C11.4375 2.44531 11.4219 2.50781 11.4219 2.58594C11.4062 2.75781 11.4062 2.92969 11.4219 3.10156C11.4375 3.27344 11.4297 3.4375 11.3984 3.59375C11.3828 3.67188 11.3594 3.74219 11.3281 3.80469C11.2969 3.85156 11.2656 3.90625 11.2344 3.96875C11.2031 4.04688 11.1719 4.11719 11.1406 4.17969C11.1094 4.24219 11.0781 4.28906 11.0469 4.32031C10.9219 4.39844 10.7656 4.40625 10.5781 4.34375C10.3906 4.28125 10.2188 4.28125 10.0625 4.34375C9.9375 4.25 9.8125 4.21875 9.6875 4.25C9.5625 4.28125 9.42969 4.24219 9.28906 4.13281C9.14844 4.17969 9.00781 4.1875 8.86719 4.15625C8.74219 4.125 8.60156 4.10156 8.44531 4.08594C8.39844 4.08594 8.35156 4.09375 8.30469 4.10938C8.25781 4.125 8.21094 4.125 8.16406 4.10938C8.08594 4.09375 8.00781 4.07031 7.92969 4.03906C7.85156 3.99219 7.77344 3.96875 7.69531 3.96875C7.63281 3.95312 7.5625 3.96094 7.48438 3.99219C7.42188 4.00781 7.35156 4.01562 7.27344 4.01562H6.875C6.65625 3.98438 6.42969 3.96094 6.19531 3.94531C5.96094 3.92969 5.69531 3.90625 5.39844 3.875C5.16406 3.84375 4.92188 3.82812 4.67188 3.82812C4.4375 3.82812 4.1875 3.84375 3.92188 3.875C3.84375 4.03125 3.8125 4.19531 3.82812 4.36719C3.85938 4.52344 3.88281 4.6875 3.89844 4.85938C3.91406 5.03125 3.92188 5.20312 3.92188 5.375C3.9375 5.54688 3.95312 5.71875 3.96875 5.89062C3.96875 5.9375 3.96094 5.99219 3.94531 6.05469C3.92969 6.10156 3.92188 6.14844 3.92188 6.19531C3.92188 6.28906 3.92969 6.40625 3.94531 6.54688C3.96094 6.6875 3.96875 6.82031 3.96875 6.94531C3.96875 7.05469 3.96094 7.15625 3.94531 7.25C3.92969 7.32812 3.94531 7.41406 3.99219 7.50781C4.13281 7.55469 4.28906 7.57812 4.46094 7.57812C4.57031 7.59375 4.67188 7.60156 4.76562 7.60156C4.875 7.60156 4.97656 7.60156 5.07031 7.60156C5.24219 7.58594 5.40625 7.57812 5.5625 7.57812C5.73438 7.57812 5.90625 7.57812 6.07812 7.57812C6.34375 7.57812 6.60156 7.57812 6.85156 7.57812C7.11719 7.57812 7.40625 7.5625 7.71875 7.53125C7.85938 7.51562 7.99219 7.5 8.11719 7.48438C8.25781 7.45312 8.39844 7.47656 8.53906 7.55469C8.61719 7.52344 8.69531 7.50781 8.77344 7.50781C8.86719 7.50781 8.95312 7.5 9.03125 7.48438C9.10938 7.46875 9.17188 7.46875 9.21875 7.48438C9.26562 7.5 9.32812 7.50781 9.40625 7.50781C9.65625 7.49219 9.85156 7.49219 9.99219 7.50781C10.1328 7.52344 10.2656 7.53125 10.3906 7.53125C10.4688 7.51562 10.5391 7.5 10.6016 7.48438C10.6797 7.46875 10.75 7.46875 10.8125 7.48438C10.8906 7.48438 10.9297 7.51562 10.9297 7.57812C10.9453 7.625 10.9688 7.67188 11 7.71875C11.0625 7.84375 11.0938 7.97656 11.0938 8.11719C11.0938 8.24219 11.0859 8.39844 11.0703 8.58594C11.0859 8.66406 11.0781 8.74219 11.0469 8.82031C11.0312 8.88281 11.0234 8.9375 11.0234 8.98438C11.0078 9.1875 11.0078 9.375 11.0234 9.54688C11.0391 9.70312 11.0781 9.86719 11.1406 10.0391C11.1094 10.1172 11.0781 10.2031 11.0469 10.2969C11.0156 10.375 10.9688 10.4453 10.9062 10.5078C10.8438 10.4922 10.7891 10.5 10.7422 10.5312C10.6953 10.5625 10.6484 10.5781 10.6016 10.5781C10.5234 10.5781 10.4609 10.5703 10.4141 10.5547C10.3672 10.5234 10.3125 10.4922 10.25 10.4609C10.2188 10.4141 10.1641 10.4141 10.0859 10.4609C10.0234 10.4922 10 10.4531 10.0156 10.3438C9.85938 10.4375 9.72656 10.4922 9.61719 10.5078C9.50781 10.5078 9.42969 10.5391 9.38281 10.6016C9.30469 10.5391 9.21094 10.5156 9.10156 10.5312C9.00781 10.5312 8.91406 10.5469 8.82031 10.5781C8.74219 10.5469 8.65625 10.5312 8.5625 10.5312C8.48438 10.5156 8.375 10.5 8.23438 10.4844C8.15625 10.4531 8.0625 10.4609 7.95312 10.5078C7.85938 10.5547 7.77344 10.5859 7.69531 10.6016C7.53906 10.5547 7.39844 10.5469 7.27344 10.5781C7.14844 10.6094 7.03125 10.6484 6.92188 10.6953C6.84375 10.7109 6.79688 10.6953 6.78125 10.6484C6.76562 10.5859 6.71875 10.5625 6.64062 10.5781C6.57812 10.625 6.48438 10.6484 6.35938 10.6484C6.25 10.6328 6.17188 10.6562 6.125 10.7188C6.04688 10.6406 5.92969 10.625 5.77344 10.6719C5.63281 10.7031 5.51562 10.6719 5.42188 10.5781C5.39062 10.6406 5.34375 10.6641 5.28125 10.6484C5.23438 10.6172 5.17188 10.6094 5.09375 10.625C5.03125 10.625 4.96875 10.6328 4.90625 10.6484C4.85938 10.6641 4.80469 10.6719 4.74219 10.6719C4.66406 10.6875 4.57031 10.6797 4.46094 10.6484C4.36719 10.6172 4.28125 10.625 4.20312 10.6719C4.125 10.7188 4.09375 10.7812 4.10938 10.8594C4.125 10.9375 4.125 11.0234 4.10938 11.1172C4.09375 11.1641 4.07812 11.2109 4.0625 11.2578C4.04688 11.3047 4.03906 11.3516 4.03906 11.3984C4.03906 11.4609 4.04688 11.5234 4.0625 11.5859C4.09375 11.6328 4.10156 11.6875 4.08594 11.75C4.08594 11.875 4.0625 12.0078 4.01562 12.1484C3.98438 12.2891 3.95312 12.4297 3.92188 12.5703C3.85938 12.8203 3.82812 13.0156 3.82812 13.1562C3.82812 13.2969 3.78906 13.4219 3.71094 13.5312C3.75781 13.625 3.78125 13.7109 3.78125 13.7891C3.79688 13.9141 3.80469 14.0469 3.80469 14.1875C3.80469 14.3281 3.80469 14.4609 3.80469 14.5859C3.80469 14.6797 3.80469 14.7812 3.80469 14.8906C3.80469 14.9844 3.78906 15.0859 3.75781 15.1953C3.74219 15.2422 3.72656 15.2891 3.71094 15.3359C3.69531 15.3828 3.6875 15.4297 3.6875 15.4766C3.67188 15.5547 3.67969 15.6406 3.71094 15.7344C3.74219 15.8281 3.74219 15.9219 3.71094 16.0156C3.85156 16.0938 4 16.125 4.15625 16.1094C4.32812 16.0938 4.52344 16.0859 4.74219 16.0859C5.00781 16.0703 5.27344 16.0469 5.53906 16.0156C5.82031 15.9844 6.07031 15.9688 6.28906 15.9688C6.41406 15.9688 6.52344 15.9844 6.61719 16.0156C6.72656 16.0469 6.83594 16.0469 6.94531 16.0156C7.05469 15.9844 7.17969 15.9609 7.32031 15.9453C7.47656 15.9141 7.61719 15.9062 7.74219 15.9219C7.91406 15.9062 8.04688 15.9062 8.14062 15.9219C8.25 15.9375 8.35156 15.9453 8.44531 15.9453C8.58594 15.9453 8.71094 15.9453 8.82031 15.9453C8.94531 15.9297 9.07031 15.9141 9.19531 15.8984C9.25781 15.8828 9.3125 15.8672 9.35938 15.8516C9.42188 15.8359 9.48438 15.8281 9.54688 15.8281C9.65625 15.8438 9.73438 15.8516 9.78125 15.8516C9.82812 15.8359 9.86719 15.8281 9.89844 15.8281C9.99219 15.8594 10.0547 15.8672 10.0859 15.8516C10.1172 15.8359 10.1406 15.8281 10.1562 15.8281C10.2188 15.8594 10.2969 15.8594 10.3906 15.8281C10.4844 15.7812 10.6016 15.7734 10.7422 15.8047C10.7891 15.8359 10.8125 15.8906 10.8125 15.9688C10.8281 16.0312 10.8594 16.0781 10.9062 16.1094C10.8906 16.1875 10.9062 16.2344 10.9531 16.25C11 16.2656 11.0312 16.3047 11.0469 16.3672C11.0781 16.7422 11.0703 17.1172 11.0234 17.4922C10.9766 17.8516 10.9453 18.2344 10.9297 18.6406C10.8984 18.6875 10.8594 18.7188 10.8125 18.7344C10.7656 18.7656 10.7109 18.7969 10.6484 18.8281C10.6016 18.8594 10.5469 18.8906 10.4844 18.9219C10.4375 18.9531 10.3828 18.9688 10.3203 18.9688C10.2578 18.9688 10.1953 18.9531 10.1328 18.9219C10.0703 18.9062 10.0078 18.8906 9.94531 18.875C9.86719 18.875 9.78906 18.8828 9.71094 18.8984C9.64844 18.9141 9.57031 18.9219 9.47656 18.9219C9.35156 18.9219 9.21094 18.9141 9.05469 18.8984C8.91406 18.8828 8.76562 18.8672 8.60938 18.8516C8.4375 18.8359 8.27344 18.8203 8.11719 18.8047C7.97656 18.8047 7.86719 18.7812 7.78906 18.7344C7.71094 18.7188 7.65625 18.7266 7.625 18.7578C7.59375 18.8047 7.53906 18.8281 7.46094 18.8281C7.30469 18.7812 7.13281 18.7578 6.94531 18.7578C6.77344 18.7578 6.58594 18.75 6.38281 18.7344C6.24219 18.7188 6.10156 18.7188 5.96094 18.7344C5.83594 18.7656 5.69531 18.7812 5.53906 18.7812C5.41406 18.7969 5.28125 18.7969 5.14062 18.7812C5.01562 18.7656 4.89062 18.7656 4.76562 18.7812C4.625 18.7812 4.49219 18.7891 4.36719 18.8047C4.25781 18.8359 4.14062 18.8438 4.01562 18.8281C3.9375 18.8281 3.86719 18.8125 3.80469 18.7812C3.75781 18.7656 3.69531 18.7578 3.61719 18.7578C3.52344 18.7734 3.44531 18.7656 3.38281 18.7344C3.32031 18.7188 3.25781 18.7109 3.19531 18.7109C3.07031 18.6797 2.9375 18.6562 2.79688 18.6406C2.65625 18.6406 2.52344 18.6016 2.39844 18.5234C2.33594 18.5547 2.27344 18.5625 2.21094 18.5469C2.16406 18.5312 2.10938 18.5234 2.04688 18.5234C1.96875 18.5391 1.90625 18.5391 1.85938 18.5234C1.8125 18.5234 1.77344 18.5234 1.74219 18.5234C1.63281 18.5391 1.52344 18.5625 1.41406 18.5938C1.32031 18.6406 1.21875 18.6484 1.10938 18.6172C1 18.5391 0.9375 18.4688 0.921875 18.4062C0.90625 18.3438 0.882812 18.2734 0.851562 18.1953C0.835938 18.1484 0.8125 18.1016 0.78125 18.0547C0.765625 17.9922 0.757812 17.9297 0.757812 17.8672C0.742188 17.7891 0.742188 17.7266 0.757812 17.6797C0.773438 17.6172 0.773438 17.5547 0.757812 17.4922C0.742188 17.4141 0.71875 17.3438 0.6875 17.2812C0.65625 17.2031 0.625 17.1328 0.59375 17.0703C0.625 16.8984 0.625 16.7344 0.59375 16.5781C0.5625 16.4219 0.554688 16.25 0.570312 16.0625C0.570312 15.9219 0.578125 15.8203 0.59375 15.7578C0.609375 15.6953 0.617188 15.6406 0.617188 15.5938C0.617188 15.5469 0.609375 15.5 0.59375 15.4531C0.578125 15.4062 0.5625 15.3594 0.546875 15.3125C0.53125 15.2344 0.53125 15.1953 0.546875 15.1953C0.5625 15.1797 0.5625 15.1328 0.546875 15.0547C0.53125 14.9297 0.492188 14.7969 0.429688 14.6562C0.382812 14.5156 0.382812 14.375 0.429688 14.2344C0.460938 14.1406 0.460938 14.0703 0.429688 14.0234C0.414062 13.9766 0.40625 13.9375 0.40625 13.9062C0.40625 13.8281 0.414062 13.75 0.429688 13.6719C0.460938 13.5781 0.492188 13.4844 0.523438 13.3906C0.523438 13.3125 0.515625 13.25 0.5 13.2031C0.484375 13.1406 0.46875 13.0781 0.453125 13.0156C0.484375 12.9062 0.484375 12.8438 0.453125 12.8281C0.4375 12.7969 0.429688 12.7578 0.429688 12.7109C0.429688 12.6484 0.4375 12.5859 0.453125 12.5234C0.46875 12.4609 0.476562 12.3984 0.476562 12.3359C0.460938 12.2109 0.460938 12.1016 0.476562 12.0078C0.507812 11.8984 0.484375 11.8125 0.40625 11.75C0.484375 11.5938 0.5 11.4375 0.453125 11.2812C0.421875 11.1094 0.40625 10.9297 0.40625 10.7422C0.390625 10.6641 0.390625 10.5938 0.40625 10.5312C0.421875 10.4688 0.4375 10.3984 0.453125 10.3203C0.453125 10.2578 0.445312 10.2031 0.429688 10.1562C0.414062 10.0938 0.40625 10.0312 0.40625 9.96875C0.421875 9.875 0.429688 9.78906 0.429688 9.71094C0.429688 9.61719 0.429688 9.51562 0.429688 9.40625C0.429688 9.35938 0.4375 9.3125 0.453125 9.26562C0.46875 9.21875 0.476562 9.17188 0.476562 9.125C0.460938 9.09375 0.445312 9.04688 0.429688 8.98438C0.414062 8.90625 0.40625 8.84375 0.40625 8.79688C0.40625 8.65625 0.429688 8.57031 0.476562 8.53906C0.445312 8.46094 0.414062 8.39844 0.382812 8.35156C0.367188 8.30469 0.390625 8.24219 0.453125 8.16406C0.390625 7.99219 0.367188 7.89062 0.382812 7.85938C0.414062 7.82812 0.429688 7.78125 0.429688 7.71875C0.414062 7.54688 0.398438 7.39844 0.382812 7.27344C0.367188 7.13281 0.359375 7 0.359375 6.875C0.359375 6.82812 0.367188 6.78125 0.382812 6.73438C0.398438 6.67188 0.40625 6.61719 0.40625 6.57031C0.40625 6.49219 0.398438 6.42969 0.382812 6.38281C0.367188 6.33594 0.367188 6.28125 0.382812 6.21875C0.460938 5.95312 0.5 5.75 0.5 5.60938C0.5 5.45312 0.539062 5.32031 0.617188 5.21094C0.507812 5.00781 0.484375 4.77344 0.546875 4.50781C0.609375 4.22656 0.640625 3.94531 0.640625 3.66406C0.65625 3.47656 0.648438 3.28125 0.617188 3.07812C0.601562 2.85938 0.609375 2.63281 0.640625 2.39844C0.65625 2.22656 0.648438 2.08594 0.617188 1.97656C0.585938 1.86719 0.570312 1.77344 0.570312 1.69531C0.570312 1.61719 0.585938 1.53906 0.617188 1.46094C0.648438 1.38281 0.679688 1.30469 0.710938 1.22656C0.742188 1.16406 0.765625 1.10938 0.78125 1.0625C0.8125 1 0.859375 0.953125 0.921875 0.921875C1.59375 1.04688 2.25 1.07812 2.89062 1.01562C3.54688 0.9375 4.17188 0.921875 4.76562 0.96875C4.9375 1 5.10156 1.03906 5.25781 1.08594C5.42969 1.11719 5.60156 1.14063 5.77344 1.15625C5.88281 1.17187 5.99219 1.17187 6.10156 1.15625C6.21094 1.125 6.35156 1.10156 6.52344 1.08594C6.67969 1.11719 6.78125 1.13281 6.82812 1.13281C6.89062 1.11719 6.9375 1.10938 6.96875 1.10938C7.04688 1.10938 7.11719 1.125 7.17969 1.15625C7.24219 1.17187 7.3125 1.17969 7.39062 1.17969C7.51562 1.21094 7.63281 1.22656 7.74219 1.22656C7.85156 1.22656 7.96875 1.23438 8.09375 1.25C8.1875 1.25 8.28906 1.24219 8.39844 1.22656C8.50781 1.21094 8.61719 1.21094 8.72656 1.22656C8.86719 1.22656 9.03906 1.25 9.24219 1.29688C9.44531 1.32813 9.64062 1.35156 9.82812 1.36719C9.95312 1.35156 10.0391 1.35156 10.0859 1.36719C10.1484 1.38281 10.2031 1.39844 10.25 1.41406C10.4688 1.44531 10.6719 1.45312 10.8594 1.4375C11.0469 1.42188 11.2422 1.42969 11.4453 1.46094ZM34.4609 1.69531C34.4297 1.82031 34.3828 1.94531 34.3203 2.07031C34.2734 2.19531 34.2266 2.3125 34.1797 2.42188C34.1328 2.54688 34.0859 2.66406 34.0391 2.77344C34.0078 2.88281 33.9609 3 33.8984 3.125C33.8828 3.29688 33.8516 3.47656 33.8047 3.66406C33.7578 3.83594 33.7109 4.01562 33.6641 4.20312C33.6328 4.32812 33.6016 4.40625 33.5703 4.4375C33.5547 4.46875 33.5469 4.5 33.5469 4.53125C33.5156 4.67188 33.5 4.80469 33.5 4.92969C33.5 5.03906 33.4766 5.15625 33.4297 5.28125C33.3828 5.35938 33.3594 5.42188 33.3594 5.46875C33.3594 5.51562 33.3516 5.55469 33.3359 5.58594C33.3047 5.71094 33.2812 5.8125 33.2656 5.89062C33.25 5.9375 33.2422 6 33.2422 6.07812C33.2422 6.14062 33.2344 6.19531 33.2188 6.24219C33.1719 6.32031 33.1484 6.375 33.1484 6.40625C33.1484 6.4375 33.1406 6.46875 33.125 6.5C33.0781 6.57812 33.0547 6.64062 33.0547 6.6875C33.0547 6.71875 33.0547 6.75 33.0547 6.78125C33.0078 6.85938 32.9844 6.92188 32.9844 6.96875C32.9844 7 32.9766 7.03125 32.9609 7.0625C32.8828 7.1875 32.8359 7.28125 32.8203 7.34375C32.8203 7.40625 32.8125 7.46094 32.7969 7.50781C32.7656 7.67969 32.7344 7.875 32.7031 8.09375C32.6719 8.3125 32.625 8.51562 32.5625 8.70312C32.5312 8.78125 32.5 8.84375 32.4688 8.89062C32.4531 8.9375 32.4297 8.98438 32.3984 9.03125C32.3672 9.07812 32.3359 9.17188 32.3047 9.3125C32.2891 9.45312 32.2656 9.57031 32.2344 9.66406C32.2188 9.74219 32.2031 9.82031 32.1875 9.89844C32.1719 9.97656 32.1484 10.0703 32.1172 10.1797C32.0859 10.3047 32.0547 10.375 32.0234 10.3906C32.0078 10.4062 32 10.4297 32 10.4609C31.9688 10.5859 31.9453 10.7031 31.9297 10.8125C31.9297 10.9219 31.9141 11.0312 31.8828 11.1406C31.8203 11.25 31.7891 11.3359 31.7891 11.3984C31.8047 11.4453 31.8047 11.4844 31.7891 11.5156C31.7266 11.6875 31.6797 11.8281 31.6484 11.9375C31.6328 12.0469 31.6094 12.1484 31.5781 12.2422C31.5312 12.3672 31.5078 12.4688 31.5078 12.5469C31.5078 12.6094 31.5078 12.6719 31.5078 12.7344C31.4922 12.8125 31.4688 12.8984 31.4375 12.9922C31.4062 13.0859 31.375 13.1719 31.3438 13.25C31.3281 13.3438 31.3125 13.4375 31.2969 13.5312C31.2969 13.6094 31.2812 13.6953 31.25 13.7891C31.2188 13.9141 31.1797 14.0312 31.1328 14.1406C31.1016 14.2344 31.0625 14.3438 31.0156 14.4688C30.9688 14.6094 30.9453 14.7109 30.9453 14.7734C30.9453 14.8359 30.9453 14.8906 30.9453 14.9375C30.8516 15.2188 30.7812 15.4688 30.7344 15.6875C30.7031 15.8906 30.6484 16.1016 30.5703 16.3203C30.6016 16.3828 30.6172 16.4531 30.6172 16.5312C30.6172 16.5938 30.6328 16.6562 30.6641 16.7188C30.6484 16.7656 30.625 16.8125 30.5938 16.8594C30.5625 16.9062 30.5312 16.9609 30.5 17.0234C30.4844 17.0859 30.4688 17.1484 30.4531 17.2109C30.4531 17.2578 30.4375 17.3125 30.4062 17.375C30.3594 17.4688 30.3047 17.5625 30.2422 17.6562C30.1797 17.7344 30.1406 17.8359 30.125 17.9609C30.0938 18.0391 30.0547 18.0938 30.0078 18.125C29.9766 18.1406 29.9531 18.1797 29.9375 18.2422C29.9062 18.3203 29.8906 18.4062 29.8906 18.5C29.9062 18.5938 29.9062 18.6641 29.8906 18.7109C29.7969 18.8359 29.7344 18.9375 29.7031 19.0156C29.6875 19.1094 29.6172 19.1719 29.4922 19.2031C29.3828 19.25 29.2812 19.2422 29.1875 19.1797C29.1094 19.1328 29.0312 19.0625 28.9531 18.9688C28.875 18.875 28.8047 18.7734 28.7422 18.6641C28.6797 18.5547 28.625 18.4688 28.5781 18.4062C28.4375 18.2969 28.3281 18.1719 28.25 18.0312C28.1719 17.875 28.0781 17.7266 27.9688 17.5859C27.9062 17.5078 27.8516 17.4375 27.8047 17.375C27.7578 17.2969 27.7188 17.2266 27.6875 17.1641C27.5938 17.0391 27.5312 16.9375 27.5 16.8594C27.4219 16.7656 27.3438 16.6562 27.2656 16.5312C27.2031 16.3906 27.1406 16.2578 27.0781 16.1328C26.9062 15.9609 26.7578 15.7656 26.6328 15.5469C26.5234 15.3281 26.4062 15.1016 26.2812 14.8672C26.2344 14.7422 26.1953 14.6719 26.1641 14.6562C26.1328 14.625 26.1094 14.5938 26.0938 14.5625C26.0469 14.4844 26.0078 14.4062 25.9766 14.3281C25.9453 14.2344 25.8984 14.1484 25.8359 14.0703C25.7734 13.9297 25.7188 13.8281 25.6719 13.7656C25.625 13.7031 25.5859 13.6562 25.5547 13.625C25.5703 13.5312 25.5469 13.4609 25.4844 13.4141C25.4219 13.3672 25.375 13.3203 25.3438 13.2734C25.3125 13.1016 25.2656 12.9766 25.2031 12.8984C25.1562 12.8203 25.1172 12.75 25.0859 12.6875C25.0703 12.6406 25.0625 12.5938 25.0625 12.5469C25.0625 12.4844 25.0469 12.4297 25.0156 12.3828C24.9844 12.3047 24.9531 12.2344 24.9219 12.1719C24.9062 12.0938 24.8828 12.0156 24.8516 11.9375C24.8203 11.8594 24.7812 11.7891 24.7344 11.7266C24.7031 11.6484 24.6797 11.5859 24.6641 11.5391C24.6641 11.4141 24.6484 11.3438 24.6172 11.3281C24.6016 11.3125 24.5938 11.2969 24.5938 11.2812C24.5469 10.9688 24.4688 10.6953 24.3594 10.4609C24.3594 10.3828 24.3359 10.3281 24.2891 10.2969C24.2578 10.25 24.2344 10.2031 24.2188 10.1562C24.2031 10.125 24.1953 10.0781 24.1953 10.0156C24.2109 9.95312 24.2109 9.90625 24.1953 9.875C24.1172 9.75 24.0781 9.67188 24.0781 9.64062C24.0938 9.59375 24.0938 9.55469 24.0781 9.52344C24.0625 9.49219 24.0391 9.45312 24.0078 9.40625C23.9766 9.35938 23.9531 9.30469 23.9375 9.24219C23.8906 9.08594 23.8438 8.9375 23.7969 8.79688C23.7656 8.64062 23.7188 8.49219 23.6562 8.35156C23.6719 8.22656 23.6797 8.13281 23.6797 8.07031C23.6797 7.99219 23.6484 7.91406 23.5859 7.83594C23.4766 7.86719 23.4141 7.9375 23.3984 8.04688C23.3828 8.15625 23.3594 8.25781 23.3281 8.35156C23.2969 8.42969 23.2656 8.51562 23.2344 8.60938C23.2188 8.70312 23.1953 8.78906 23.1641 8.86719C23.1172 9.00781 23.0625 9.14062 23 9.26562C22.9375 9.375 22.875 9.49219 22.8125 9.61719C22.7344 9.78906 22.6875 9.92969 22.6719 10.0391C22.6562 10.1484 22.6328 10.2344 22.6016 10.2969C22.5703 10.375 22.5156 10.4609 22.4375 10.5547C22.375 10.6328 22.3281 10.7109 22.2969 10.7891C22.2188 10.9141 22.1562 11.0391 22.1094 11.1641C22.0625 11.2734 22 11.3906 21.9219 11.5156C21.8438 11.625 21.7578 11.7344 21.6641 11.8438C21.5859 11.9375 21.5234 12.0469 21.4766 12.1719C21.4297 12.2656 21.3906 12.3672 21.3594 12.4766C21.3438 12.5703 21.3203 12.6641 21.2891 12.7578C21.2578 12.8203 21.2266 12.8984 21.1953 12.9922C21.1797 13.0703 21.1562 13.1484 21.125 13.2266C21.0469 13.4141 20.9766 13.5859 20.9141 13.7422C20.8516 13.8828 20.75 14.0156 20.6094 14.1406C20.5781 14.2656 20.5547 14.3438 20.5391 14.375C20.5234 14.4062 20.5078 14.4297 20.4922 14.4453C20.4922 14.5234 20.4688 14.5859 20.4219 14.6328C20.3906 14.6641 20.3672 14.6875 20.3516 14.7031C20.3203 14.75 20.2969 14.7969 20.2812 14.8438C20.2656 14.8906 20.2422 14.9531 20.2109 15.0312C20.1328 15.0938 20.0938 15.1484 20.0938 15.1953C20.1094 15.2266 20.0938 15.2656 20.0469 15.3125C19.9375 15.4531 19.8672 15.5625 19.8359 15.6406C19.8047 15.7031 19.7578 15.7734 19.6953 15.8516C19.6172 15.9453 19.5625 16.0156 19.5312 16.0625C19.5156 16.0938 19.4922 16.125 19.4609 16.1562C19.4297 16.1875 19.4062 16.2344 19.3906 16.2969C19.375 16.3594 19.3516 16.4141 19.3203 16.4609C19.2891 16.5391 19.25 16.6016 19.2031 16.6484C19.1719 16.6797 19.1406 16.7344 19.1094 16.8125C19.0469 16.9531 18.9922 17.0859 18.9453 17.2109C18.8984 17.3359 18.875 17.4688 18.875 17.6094C18.8438 17.6406 18.8125 17.6797 18.7812 17.7266C18.7656 17.7734 18.7344 17.8125 18.6875 17.8438C18.6562 17.9219 18.6562 17.9688 18.6875 17.9844C18.7344 18 18.7578 18.0469 18.7578 18.125C18.6484 18.2031 18.5938 18.3203 18.5938 18.4766C18.5938 18.6328 18.5625 18.7812 18.5 18.9219C18.4062 19.0312 18.3516 19.1094 18.3359 19.1562C18.3203 19.2031 18.2891 19.2422 18.2422 19.2734C18.1797 19.3203 18.1094 19.3516 18.0312 19.3672C17.9531 19.3828 17.875 19.3516 17.7969 19.2734C17.7031 19.1641 17.6406 19.0781 17.6094 19.0156C17.5938 18.9531 17.5703 18.8984 17.5391 18.8516C17.5234 18.8203 17.5 18.7812 17.4688 18.7344C17.4375 18.6875 17.4141 18.6484 17.3984 18.6172C17.3672 18.5547 17.3516 18.4922 17.3516 18.4297C17.3672 18.3516 17.3594 18.2812 17.3281 18.2188C17.2969 18.1406 17.2656 18.0625 17.2344 17.9844C17.2188 17.8906 17.1953 17.8047 17.1641 17.7266C17.1172 17.5547 17.0859 17.4453 17.0703 17.3984C17.0547 17.3359 17.0469 17.2812 17.0469 17.2344C17.0312 17.1875 17.0078 17.1484 16.9766 17.1172C16.9609 17.0703 16.9375 17.0156 16.9062 16.9531C16.9062 16.7969 16.9219 16.7031 16.9531 16.6719C16.9219 16.5469 16.8906 16.4609 16.8594 16.4141C16.8438 16.3672 16.8281 16.3281 16.8125 16.2969C16.7969 16.2656 16.7891 16.2266 16.7891 16.1797C16.8047 16.1328 16.8047 16.0859 16.7891 16.0391C16.6797 15.7266 16.6562 15.5391 16.7188 15.4766C16.7031 15.4297 16.6797 15.3828 16.6484 15.3359C16.6172 15.2891 16.5938 15.2344 16.5781 15.1719C16.5469 15.1094 16.5391 15.0391 16.5547 14.9609C16.5703 14.8828 16.5391 14.8281 16.4609 14.7969C16.4922 14.6719 16.4609 14.5469 16.3672 14.4219C16.2891 14.2969 16.2344 14.1719 16.2031 14.0469C16.1719 13.9531 16.1562 13.8594 16.1562 13.7656C16.1562 13.6719 16.1484 13.5781 16.1328 13.4844C16.1172 13.4375 16.0938 13.3516 16.0625 13.2266C16.0469 13.1641 16.0391 13.0703 16.0391 12.9453C16.0078 12.8672 15.9688 12.7891 15.9219 12.7109C15.875 12.6328 15.8672 12.5547 15.8984 12.4766C15.8984 12.4609 15.8672 12.4141 15.8047 12.3359C15.7422 12.2422 15.75 12.1719 15.8281 12.125C15.7656 12.0469 15.7188 11.9688 15.6875 11.8906C15.6562 11.8125 15.625 11.7344 15.5938 11.6562C15.5781 11.6094 15.5781 11.5625 15.5938 11.5156C15.6094 11.4688 15.6016 11.4141 15.5703 11.3516C15.4922 11.1484 15.4453 10.9766 15.4297 10.8359C15.4141 10.6953 15.3984 10.5547 15.3828 10.4141C15.3672 10.3516 15.3516 10.2969 15.3359 10.25C15.3359 10.2031 15.3281 10.1484 15.3125 10.0859C15.2969 10.0078 15.2891 9.9375 15.2891 9.875C15.3047 9.79688 15.3047 9.72656 15.2891 9.66406C15.2422 9.57031 15.2109 9.50781 15.1953 9.47656C15.1953 9.42969 15.1875 9.39062 15.1719 9.35938C15.1562 9.3125 15.1328 9.26562 15.1016 9.21875C15.0859 9.17188 15.0781 9.11719 15.0781 9.05469C15.0469 8.97656 15.0391 8.90625 15.0547 8.84375C15.0703 8.76562 15.0625 8.69531 15.0312 8.63281C15 8.42969 14.9609 8.27344 14.9141 8.16406C14.8828 8.03906 14.8516 7.91406 14.8203 7.78906C14.7891 7.66406 14.7656 7.59375 14.75 7.57812C14.7344 7.54688 14.7266 7.51562 14.7266 7.48438C14.7266 7.375 14.7109 7.3125 14.6797 7.29688C14.6641 7.26562 14.6562 7.23438 14.6562 7.20312C14.6562 7.07812 14.6484 7 14.6328 6.96875C14.6328 6.9375 14.6328 6.90625 14.6328 6.875C14.6016 6.76562 14.5703 6.67188 14.5391 6.59375C14.5078 6.51562 14.4688 6.41406 14.4219 6.28906C14.4062 6.21094 14.3906 6.14062 14.375 6.07812C14.375 6 14.3594 5.92188 14.3281 5.84375C14.2969 5.8125 14.2578 5.77344 14.2109 5.72656C14.1797 5.67969 14.1562 5.63281 14.1406 5.58594C14.1094 5.53906 14.0938 5.47656 14.0938 5.39844C14.0938 5.32031 14.0859 5.25781 14.0703 5.21094C14.0547 5.14844 14.0391 5.08594 14.0234 5.02344C14.0078 4.96094 13.9766 4.91406 13.9297 4.88281C13.8984 4.71094 13.8594 4.55469 13.8125 4.41406C13.7812 4.27344 13.7266 4.16406 13.6484 4.08594C13.6328 3.94531 13.5938 3.82812 13.5312 3.73438C13.4844 3.64062 13.4297 3.53906 13.3672 3.42969C13.3359 3.32031 13.3047 3.25 13.2734 3.21875C13.2578 3.1875 13.2422 3.15625 13.2266 3.125C13.1953 3.09375 13.1641 3.05469 13.1328 3.00781C13.1172 2.94531 13.1016 2.89062 13.0859 2.84375C13.0547 2.79688 13.0391 2.75 13.0391 2.70312C13.0391 2.65625 13.0312 2.60156 13.0156 2.53906C13 2.50781 12.9766 2.46875 12.9453 2.42188C12.9297 2.375 12.9141 2.33594 12.8984 2.30469C12.8828 2.25781 12.875 2.21094 12.875 2.16406C12.875 2.11719 12.8594 2.05469 12.8281 1.97656C12.7969 1.89844 12.7656 1.82812 12.7344 1.76562C12.7031 1.70313 12.7031 1.60938 12.7344 1.48438C12.6719 1.39062 12.6094 1.25 12.5469 1.0625C12.5156 0.890625 12.5078 0.78125 12.5234 0.734375C12.5234 0.671875 12.5078 0.625 12.4766 0.59375C12.6016 0.578125 12.7344 0.554688 12.875 0.523438C13.0156 0.492187 13.1484 0.484375 13.2734 0.5C13.3828 0.546875 13.4766 0.570312 13.5547 0.570312H13.6719C13.7344 0.570312 13.7891 0.554688 13.8359 0.523438C13.8828 0.492187 13.9453 0.476562 14.0234 0.476562C14.4141 0.492187 14.7812 0.484375 15.125 0.453125C15.4688 0.421875 15.7734 0.390625 16.0391 0.359375C16.1016 0.359375 16.1953 0.40625 16.3203 0.5C16.4453 0.578125 16.5234 0.648438 16.5547 0.710938C16.6016 0.820312 16.6172 0.960937 16.6016 1.13281C16.5859 1.30469 16.6016 1.46094 16.6484 1.60156C16.6797 1.69531 16.7031 1.8125 16.7188 1.95312C16.75 2.07813 16.7812 2.20312 16.8125 2.32812C16.8438 2.40625 16.8672 2.47656 16.8828 2.53906C16.8984 2.60156 16.9219 2.69531 16.9531 2.82031C16.9688 2.89844 16.9688 2.95312 16.9531 2.98438C16.9375 3.01562 16.9453 3.07031 16.9766 3.14844C17.0234 3.22656 17.0391 3.29688 17.0234 3.35938C17.0234 3.40625 17.0312 3.44531 17.0469 3.47656C17.0781 3.58594 17.1172 3.67969 17.1641 3.75781C17.2109 3.83594 17.2422 3.92969 17.2578 4.03906C17.2891 4.11719 17.2969 4.20312 17.2812 4.29688C17.2656 4.375 17.2734 4.45312 17.3047 4.53125C17.3359 4.70312 17.3906 4.88281 17.4688 5.07031C17.5469 5.25781 17.5547 5.45312 17.4922 5.65625C17.5547 5.76562 17.5859 5.86719 17.5859 5.96094C17.6016 6.05469 17.625 6.14062 17.6562 6.21875C17.6719 6.26562 17.6875 6.3125 17.7031 6.35938C17.7344 6.39062 17.7578 6.42969 17.7734 6.47656C17.7891 6.52344 17.7891 6.57812 17.7734 6.64062C17.7734 6.6875 17.7812 6.73438 17.7969 6.78125C17.8438 6.95312 17.9062 7.14062 17.9844 7.34375C18 7.375 18.0078 7.41406 18.0078 7.46094C18.0078 7.50781 18.0234 7.55469 18.0547 7.60156C18.1172 7.77344 18.1484 7.91406 18.1484 8.02344C18.1484 8.11719 18.1562 8.20312 18.1719 8.28125C18.1875 8.32812 18.2109 8.375 18.2422 8.42188C18.2734 8.46875 18.2656 8.52344 18.2188 8.58594C18.2969 8.66406 18.3438 8.75 18.3594 8.84375C18.3906 8.9375 18.4297 9.04688 18.4766 9.17188C18.5234 9.28125 18.5547 9.39844 18.5703 9.52344C18.6016 9.63281 18.6328 9.73438 18.6641 9.82812C18.6797 9.89062 18.7031 9.96094 18.7344 10.0391C18.7656 10.1016 18.7891 10.1641 18.8047 10.2266C18.8203 10.3047 18.8281 10.3828 18.8281 10.4609C18.8281 10.5234 18.8438 10.5938 18.875 10.6719C18.9375 10.8438 18.9844 10.9688 19.0156 11.0469C19.0625 11.125 19.1016 11.1875 19.1328 11.2344C19.2109 11.0625 19.2578 10.9531 19.2734 10.9062C19.3047 10.8594 19.3359 10.8125 19.3672 10.7656C19.3828 10.7344 19.3906 10.6953 19.3906 10.6484C19.4062 10.5859 19.4297 10.5391 19.4609 10.5078C19.4766 10.4609 19.4844 10.4141 19.4844 10.3672C19.4844 10.3203 19.4922 10.2812 19.5078 10.25C19.5859 10.1719 19.625 10.1094 19.625 10.0625C19.6406 10.0156 19.6562 9.97656 19.6719 9.94531C19.7031 9.86719 19.7344 9.77344 19.7656 9.66406C19.7969 9.55469 19.8281 9.4375 19.8594 9.3125C19.8906 9.23438 19.9219 9.16406 19.9531 9.10156C19.9844 9.02344 20.0234 8.9375 20.0703 8.84375C20.1641 8.71875 20.2422 8.59375 20.3047 8.46875C20.3516 8.39062 20.3984 8.30469 20.4453 8.21094C20.4922 8.11719 20.5547 8.03125 20.6328 7.95312C20.6484 7.82812 20.6719 7.72656 20.7031 7.64844C20.75 7.57031 20.7969 7.48438 20.8438 7.39062C20.9062 7.3125 20.9453 7.24219 20.9609 7.17969C20.9922 7.11719 21.0469 7.07812 21.125 7.0625C21.125 6.98438 21.1406 6.91406 21.1719 6.85156C21.2031 6.78906 21.2344 6.72656 21.2656 6.66406C21.3281 6.53906 21.3906 6.42188 21.4531 6.3125C21.5156 6.20312 21.5859 6.07812 21.6641 5.9375C21.7422 5.8125 21.7891 5.72656 21.8047 5.67969C21.8359 5.61719 21.8672 5.5625 21.8984 5.51562C21.9609 5.4375 21.9922 5.38281 21.9922 5.35156C21.9922 5.32031 22 5.28906 22.0156 5.25781C22.0469 5.19531 22.0703 5.14062 22.0859 5.09375C22.1016 5.04688 22.125 4.98438 22.1562 4.90625C22.1875 4.82812 22.2109 4.75781 22.2266 4.69531C22.2422 4.63281 22.2656 4.5625 22.2969 4.48438C22.3281 4.4375 22.3594 4.39062 22.3906 4.34375C22.4375 4.29688 22.4766 4.24219 22.5078 4.17969C22.5391 4.11719 22.5547 4.05469 22.5547 3.99219C22.5547 3.91406 22.5703 3.83594 22.6016 3.75781C22.6172 3.69531 22.6328 3.64062 22.6484 3.59375C22.6797 3.53125 22.7031 3.46875 22.7188 3.40625C22.7344 3.34375 22.7344 3.28125 22.7188 3.21875C22.7188 3.14062 22.7344 3.0625 22.7656 2.98438C22.7812 2.92188 22.7969 2.86719 22.8125 2.82031C22.8438 2.75781 22.8672 2.69531 22.8828 2.63281C22.9141 2.50781 22.9375 2.38281 22.9531 2.25781C22.9844 2.11719 23.0156 1.97656 23.0469 1.83594C23.0781 1.71094 23.1094 1.59375 23.1406 1.48438C23.1719 1.35937 23.2344 1.25781 23.3281 1.17969C23.4375 1.13281 23.5469 1.125 23.6562 1.15625C23.7812 1.1875 23.8828 1.21875 23.9609 1.25C24.0078 1.29688 24.0391 1.35937 24.0547 1.4375C24.0859 1.51563 24.1406 1.5625 24.2188 1.57812C24.1875 1.64062 24.1797 1.70313 24.1953 1.76562C24.2266 1.8125 24.2578 1.86719 24.2891 1.92969C24.3047 1.99219 24.3203 2.05469 24.3359 2.11719C24.3672 2.16406 24.3984 2.21094 24.4297 2.25781C24.5078 2.38281 24.5625 2.50781 24.5938 2.63281C24.625 2.74219 24.6875 2.82031 24.7812 2.86719C24.7969 2.94531 24.8125 3.01562 24.8281 3.07812C24.8438 3.14062 24.8594 3.20312 24.875 3.26562C24.9062 3.39062 24.9375 3.46875 24.9688 3.5C25 3.51562 25.0156 3.53906 25.0156 3.57031C25.0312 3.66406 25.0547 3.72656 25.0859 3.75781L25.1328 3.80469C25.1641 3.83594 25.1797 3.90625 25.1797 4.01562C25.1953 4.10938 25.2422 4.17188 25.3203 4.20312C25.3359 4.28125 25.3438 4.35156 25.3438 4.41406C25.3438 4.47656 25.3594 4.53906 25.3906 4.60156C25.375 4.66406 25.3906 4.71094 25.4375 4.74219C25.5 4.75781 25.5469 4.78125 25.5781 4.8125C25.6406 5.01562 25.7031 5.19531 25.7656 5.35156C25.8281 5.50781 25.875 5.64844 25.9062 5.77344C25.9375 5.83594 25.9609 5.89844 25.9766 5.96094C26.0078 6.00781 26.0234 6.08594 26.0234 6.19531C26.1172 6.32031 26.1797 6.48438 26.2109 6.6875C26.2422 6.875 26.3047 7.03906 26.3984 7.17969C26.4297 7.25781 26.4375 7.32031 26.4219 7.36719C26.4219 7.41406 26.4375 7.46875 26.4688 7.53125C26.5 7.59375 26.5312 7.64844 26.5625 7.69531C26.5938 7.72656 26.625 7.77344 26.6562 7.83594C26.6875 7.89844 26.7031 7.96875 26.7031 8.04688C26.7031 8.10938 26.7188 8.17188 26.75 8.23438C26.7812 8.28125 26.8047 8.32812 26.8203 8.375C26.8359 8.40625 26.8594 8.44531 26.8906 8.49219C26.9219 8.57031 26.9453 8.64844 26.9609 8.72656C26.9922 8.80469 27.0391 8.88281 27.1016 8.96094C27.1797 9.17969 27.2578 9.36719 27.3359 9.52344C27.4141 9.67969 27.4922 9.82031 27.5703 9.94531C27.6016 10.0078 27.625 10.0781 27.6406 10.1562C27.6562 10.2344 27.6797 10.3125 27.7109 10.3906C27.7422 10.4688 27.7812 10.5547 27.8281 10.6484C27.8906 10.7266 27.9453 10.8047 27.9922 10.8828C28.0703 10.9922 28.125 11.0938 28.1562 11.1875C28.1875 11.2812 28.25 11.3125 28.3438 11.2812C28.4375 11.25 28.4531 11.2031 28.3906 11.1406C28.3438 11.0781 28.3281 11.0078 28.3438 10.9297C28.4219 10.8516 28.4531 10.7656 28.4375 10.6719C28.4219 10.5625 28.4297 10.4609 28.4609 10.3672C28.4766 10.2734 28.5 10.1797 28.5312 10.0859C28.5625 9.97656 28.5938 9.88281 28.625 9.80469C28.6562 9.71094 28.6719 9.61719 28.6719 9.52344C28.6875 9.42969 28.7109 9.33594 28.7422 9.24219C28.7734 9.14844 28.7891 9.04688 28.7891 8.9375C28.7891 8.82812 28.8047 8.71875 28.8359 8.60938C28.8516 8.53125 28.8672 8.45312 28.8828 8.375C28.9141 8.29688 28.9375 8.21094 28.9531 8.11719C28.9688 8.02344 28.9688 7.92969 28.9531 7.83594C28.9531 7.72656 28.9609 7.625 28.9766 7.53125C28.9766 7.48438 28.9844 7.4375 29 7.39062C29.0156 7.32812 29.0312 7.26562 29.0469 7.20312C29.0625 7.14062 29.0703 7.07812 29.0703 7.01562C29.0703 6.9375 29.0781 6.875 29.0938 6.82812C29.125 6.75 29.1562 6.6875 29.1875 6.64062C29.2344 6.57812 29.2734 6.50781 29.3047 6.42969C29.3203 6.35156 29.3281 6.26562 29.3281 6.17188C29.3281 6.0625 29.3359 5.96094 29.3516 5.86719C29.3516 5.78906 29.3594 5.71875 29.375 5.65625C29.3906 5.57812 29.3828 5.5 29.3516 5.42188C29.4453 5.34375 29.5 5.24219 29.5156 5.11719C29.5312 4.99219 29.5625 4.875 29.6094 4.76562C29.6875 4.5625 29.7422 4.40625 29.7734 4.29688C29.8203 4.1875 29.8594 4.0625 29.8906 3.92188C29.9688 3.71875 30.0078 3.55469 30.0078 3.42969C30.0234 3.28906 30.0469 3.16406 30.0781 3.05469C30.1406 2.92969 30.1719 2.84375 30.1719 2.79688C30.1719 2.75 30.1797 2.71094 30.1953 2.67969C30.2422 2.60156 30.2578 2.53125 30.2422 2.46875C30.2422 2.40625 30.25 2.35156 30.2656 2.30469C30.3438 2.13281 30.4062 2.02344 30.4531 1.97656C30.5 1.92969 30.5391 1.89844 30.5703 1.88281C30.5703 1.80469 30.5547 1.75 30.5234 1.71875C30.4922 1.67188 30.4844 1.60938 30.5 1.53125C30.6406 1.39062 30.7969 1.32031 30.9688 1.32031C31.1562 1.30469 31.3359 1.29688 31.5078 1.29688C31.6172 1.28125 31.7031 1.27344 31.7656 1.27344C31.8438 1.25781 31.9219 1.28125 32 1.34375C32.125 1.28125 32.2734 1.25781 32.4453 1.27344C32.6328 1.28906 32.8125 1.28906 32.9844 1.27344C33.0938 1.27344 33.1875 1.28906 33.2656 1.32031C33.3594 1.33594 33.4609 1.34375 33.5703 1.34375C33.6953 1.32813 33.8125 1.30469 33.9219 1.27344C34.0469 1.24219 34.1641 1.26562 34.2734 1.34375C34.3047 1.40625 34.3203 1.47656 34.3203 1.55469C34.3359 1.61719 34.3828 1.66406 34.4609 1.69531Z" fill="#800000"/>
</svg>
