<svg width="27" height="32" viewBox="0 0 27 32" fill="none" xmlns="http://www.w3.org/2000/svg">
<path d="M26.0223 0.557661C26.2535 0.277765 20.5843 6.3314 14.9883 13.1049C14.2777 11.4817 13.1453 8.52115 10.6592 4.25383C10.6381 4.17128 10.5903 4.09674 10.5243 4.04222C10.4578 3.98728 10.3761 3.9549 10.2906 3.94928C9.89442 4.14003 10.2124 4.96786 11.1254 7.55879C12.0384 10.1497 12.4057 11.2067 13.662 14.3638C9.96358 13.8865 6.24256 13.6276 2.51875 13.5874C2.47371 13.581 2.42817 13.5836 2.38452 13.5955C2.34077 13.6065 2.29985 13.6266 2.26436 13.6538C2.22795 13.6811 2.19791 13.7154 2.17592 13.7546C2.15343 13.7934 2.13889 13.8361 2.13307 13.881C2.12724 13.9258 2.13097 13.9717 2.14293 14.015C2.15446 14.0588 2.17518 14.0999 2.20299 14.1366C2.23071 14.1723 2.26545 14.2027 2.30462 14.2256C2.34379 14.2486 2.38729 14.2631 2.43233 14.2695C5.78382 15.0176 9.17059 15.5834 12.5782 15.9644C3.55989 26.8803 2.50008 28.9716 0.835158 30.9868C0.807473 31.0582 0.803199 31.1368 0.823073 31.2115C0.842948 31.2861 0.886078 31.3526 0.945884 31.402C1.00569 31.4514 1.07856 31.4808 1.15562 31.4862C1.23267 31.4917 1.30912 31.4726 1.37393 31.432C1.14269 31.7119 5.61472 27.1651 14.4712 16.4451C16.8337 22.3057 17.704 23.9666 18.9206 26.4787C20.1373 28.9909 20.1866 29.22 20.5596 29.0572C20.9326 28.8944 20.9043 28.871 19.9189 26.079C18.9335 23.2869 18.5967 22.0198 16.3402 16.4351C19.3532 16.7855 22.3817 16.9764 25.4107 17.0061C25.4557 17.0124 25.5013 17.0098 25.5454 16.9984C25.5887 16.987 25.6301 16.9673 25.6656 16.9401C25.7015 16.9124 25.732 16.8785 25.7536 16.8398C25.7765 16.8006 25.7905 16.7573 25.7964 16.7125C25.8022 16.6676 25.799 16.6222 25.787 16.5789C25.775 16.5347 25.7543 16.4936 25.727 16.4573C25.6992 16.4216 25.6645 16.3912 25.6248 16.3678C25.5852 16.3454 25.5421 16.3303 25.4971 16.324C22.3456 15.5963 19.159 15.0392 15.9511 14.6538C23.7386 5.16989 24.873 3.04601 26.5611 1.00278C26.5888 0.931466 26.593 0.85279 26.5732 0.778146C26.5533 0.703502 26.5107 0.637481 26.4509 0.588071C26.3911 0.538661 26.3177 0.508844 26.2406 0.503411C26.1636 0.497977 26.0871 0.517016 26.0223 0.557661Z" fill="#800000"/>
</svg>
