<svg width="84" height="84" viewBox="0 0 84 84" fill="none" xmlns="http://www.w3.org/2000/svg">
<rect x="5" y="5" width="74" height="74" rx="37" fill="#CCFABD"/>
<rect x="5" y="5" width="74" height="74" rx="37" stroke="#E6FCDE" stroke-width="10"/>
<path d="M53.6673 40.9267V42C53.6659 44.5158 52.8512 46.9638 51.3449 48.9788C49.8385 50.9938 47.7211 52.4679 45.3086 53.1812C42.896 53.8945 40.3175 53.8089 37.9575 52.937C35.5976 52.0652 33.5827 50.4538 32.2134 48.3433C30.8441 46.2327 30.1937 43.7361 30.3593 41.2257C30.5248 38.7153 31.4974 36.3257 33.132 34.4133C34.7666 32.5008 36.9756 31.168 39.4295 30.6135C41.8835 30.0591 44.451 30.3127 46.749 31.3367M53.6673 32.6667L42.0007 44.345L38.5007 40.845" stroke="#30980C" stroke-width="2.33333" stroke-linecap="round" stroke-linejoin="round"/>
</svg>
